<?xml version="1.0" encoding="iso-8859-1"?>
<!-- Generator: Adobe Illustrator 19.0.0, SVG Export Plug-In . SVG Version: 6.00 Build 0)  -->
<svg xmlns="http://www.w3.org/2000/svg" xmlns:xlink="http://www.w3.org/1999/xlink" version="1.1" id="Layer_1" x="0px" y="0px" viewBox="0 0 512 512" style="enable-background:new 0 0 512 512;" xml:space="preserve" width="512" height="512">
<path d="M242.499,512c-109.178,0-198-89.035-198-198.475v-5.467c0-43.175,31.258-107.435,92.906-190.995  C182.02,56.591,225.9,8.514,227.745,6.497c3.77-4.118,9.088-6.473,14.67-6.497c0.028,0,0.057,0,0.084,0  c5.552,0,10.855,2.308,14.64,6.374c2.076,2.231,51.399,55.391,98.592,120.941c6.453,8.964,4.418,21.463-4.546,27.917  c-8.965,6.455-21.462,4.419-27.917-4.545c-30.477-42.333-62.553-80.067-80.664-100.641c-16.61,19.106-45.053,52.849-73.21,91.037  c-54.745,74.248-84.895,133.548-84.895,166.977v5.467c0,87.383,70.879,158.475,158,158.475s158-71.091,158-158.475v-5.467  c0-2.369-0.076-4.49-0.234-6.485c-0.868-11.012,7.354-20.643,18.365-21.511c11.025-0.862,20.643,7.354,21.512,18.365  c0.24,3.052,0.357,6.203,0.357,9.632v5.467C440.499,422.965,351.677,512,242.499,512z M286.441,350.83  c14.314-0.954,27.679-7.914,36.666-19.097c0.259-0.323,0.508-0.653,0.747-0.991l139.981-198.205  c6.372-9.022,4.223-21.502-4.799-27.874c-9.023-6.373-21.503-4.223-27.875,4.799L291.625,307.039  c-2.688,3.09-6.042,3.76-7.843,3.879c-1.854,0.121-5.42-0.112-8.563-3.056l-63.713-62.176c-7.906-7.716-20.568-7.559-28.282,0.345  c-7.715,7.905-7.561,20.567,0.345,28.282l63.82,62.281c0.06,0.058,0.119,0.116,0.18,0.173c9.568,9.108,22.34,14.175,35.479,14.175  C284.178,350.943,285.31,350.906,286.441,350.83z"/>















</svg>
