<svg id="Layer" enable-background="new 0 0 512 512" height="512" viewBox="0 0 512 512" width="512" xmlns="http://www.w3.org/2000/svg"><path d="m468 64h-424c-24.262 0-44 19.738-44 44v296c0 24.262 19.738 44 44 44h424c24.262 0 44-19.738 44-44v-296c0-24.262-19.738-44-44-44zm-4 336h-416v-288h416z"/><path d="m352 376h54c18.748 0 34-15.252 34-34v-54c0-13.255-10.745-24-24-24s-24 10.745-24 24v40h-40c-13.255 0-24 10.745-24 24s10.745 24 24 24z"/><path d="m96 248c13.255 0 24-10.745 24-24v-40h40c13.255 0 24-10.745 24-24s-10.745-24-24-24h-54c-18.748 0-34 15.252-34 34v54c0 13.255 10.745 24 24 24z"/></svg>